TITLE ""
FILE "LR_black_phrase_E_S03.mp3" MP3
  TRACK 01 AUDIO
    TITLE "LR_black_phrase_E_S03_001"
    INDEX 01 00:00:00
  TRACK 02 AUDIO
    TITLE "LR_black_phrase_E_S03_002"
    INDEX 01 00:00:10
  TRACK 03 AUDIO
    TITLE "LR_black_phrase_E_S03_003"
    INDEX 01 00:01:27
  TRACK 04 AUDIO
    TITLE "LR_black_phrase_E_S03_004"
    INDEX 01 00:01:47
  TRACK 05 AUDIO
    TITLE "LR_black_phrase_E_S03_005"
    INDEX 01 00:03:54
  TRACK 06 AUDIO
    TITLE "LR_black_phrase_E_S03_006"
    INDEX 01 00:04:24
  TRACK 07 AUDIO
    TITLE "LR_black_phrase_E_S03_007"
    INDEX 01 00:06:31
  TRACK 08 AUDIO
    TITLE "LR_black_phrase_E_S03_008"
    INDEX 01 00:07:32
  TRACK 09 AUDIO
    TITLE "LR_black_phrase_E_S03_009"
    INDEX 01 00:08:61
  TRACK 10 AUDIO
    TITLE "LR_black_phrase_E_S03_010"
    INDEX 01 00:09:17
  TRACK 11 AUDIO
    TITLE "LR_black_phrase_E_S03_011"
    INDEX 01 00:12:04
  TRACK 12 AUDIO
    TITLE "LR_black_phrase_E_S03_012"
    INDEX 01 00:12:61
  TRACK 13 AUDIO
    TITLE "LR_black_phrase_E_S03_013"
    INDEX 01 00:15:47
  TRACK 14 AUDIO
    TITLE "LR_black_phrase_E_S03_014"
    INDEX 01 00:16:45
  TRACK 15 AUDIO
    TITLE "LR_black_phrase_E_S03_015"
    INDEX 01 00:18:02
  TRACK 16 AUDIO
    TITLE "LR_black_phrase_E_S03_016"
    INDEX 01 00:18:30
  TRACK 17 AUDIO
    TITLE "LR_black_phrase_E_S03_017"
    INDEX 01 00:20:48
  TRACK 18 AUDIO
    TITLE "LR_black_phrase_E_S03_018"
    INDEX 01 00:21:20
  TRACK 19 AUDIO
    TITLE "LR_black_phrase_E_S03_019"
    INDEX 01 00:23:39
  TRACK 20 AUDIO
    TITLE "LR_black_phrase_E_S03_020"
    INDEX 01 00:24:34
  TRACK 21 AUDIO
    TITLE "LR_black_phrase_E_S03_021"
    INDEX 01 00:25:65
  TRACK 22 AUDIO
    TITLE "LR_black_phrase_E_S03_022"
    INDEX 01 00:26:12
  TRACK 23 AUDIO
    TITLE "LR_black_phrase_E_S03_023"
    INDEX 01 00:28:18
  TRACK 24 AUDIO
    TITLE "LR_black_phrase_E_S03_024"
    INDEX 01 00:28:65
  TRACK 25 AUDIO
    TITLE "LR_black_phrase_E_S03_025"
    INDEX 01 00:30:72
  TRACK 26 AUDIO
    TITLE "LR_black_phrase_E_S03_026"
    INDEX 01 00:31:72
  TRACK 27 AUDIO
    TITLE "LR_black_phrase_E_S03_027"
    INDEX 01 00:33:16
  TRACK 28 AUDIO
    TITLE "LR_black_phrase_E_S03_028"
    INDEX 01 00:33:45
  TRACK 29 AUDIO
    TITLE "LR_black_phrase_E_S03_029"
    INDEX 01 00:37:08
  TRACK 30 AUDIO
    TITLE "LR_black_phrase_E_S03_030"
    INDEX 01 00:37:62
  TRACK 31 AUDIO
    TITLE "LR_black_phrase_E_S03_031"
    INDEX 01 00:41:27
  TRACK 32 AUDIO
    TITLE "LR_black_phrase_E_S03_032"
    INDEX 01 00:42:30
  TRACK 33 AUDIO
    TITLE "LR_black_phrase_E_S03_033"
    INDEX 01 00:43:57
  TRACK 34 AUDIO
    TITLE "LR_black_phrase_E_S03_034"
    INDEX 01 00:44:12
  TRACK 35 AUDIO
    TITLE "LR_black_phrase_E_S03_035"
    INDEX 01 00:46:01
  TRACK 36 AUDIO
    TITLE "LR_black_phrase_E_S03_036"
    INDEX 01 00:46:57
  TRACK 37 AUDIO
    TITLE "LR_black_phrase_E_S03_037"
    INDEX 01 00:48:49
  TRACK 38 AUDIO
    TITLE "LR_black_phrase_E_S03_038"
    INDEX 01 00:49:54
  TRACK 39 AUDIO
    TITLE "LR_black_phrase_E_S03_039"
    INDEX 01 00:50:65
  TRACK 40 AUDIO
    TITLE "LR_black_phrase_E_S03_040"
    INDEX 01 00:51:19
  TRACK 41 AUDIO
    TITLE "LR_black_phrase_E_S03_041"
    INDEX 01 00:53:63
  TRACK 42 AUDIO
    TITLE "LR_black_phrase_E_S03_042"
    INDEX 01 00:54:43
  TRACK 43 AUDIO
    TITLE "LR_black_phrase_E_S03_043"
    INDEX 01 00:57:10
  TRACK 44 AUDIO
    TITLE "LR_black_phrase_E_S03_044"
    INDEX 01 00:58:14
  TRACK 45 AUDIO
    TITLE "LR_black_phrase_E_S03_045"
    INDEX 01 00:59:39
  TRACK 46 AUDIO
    TITLE "LR_black_phrase_E_S03_046"
    INDEX 01 00:59:54
  TRACK 47 AUDIO
    TITLE "LR_black_phrase_E_S03_047"
    INDEX 01 01:02:56
  TRACK 48 AUDIO
    TITLE "LR_black_phrase_E_S03_048"
    INDEX 01 01:03:27
  TRACK 49 AUDIO
    TITLE "LR_black_phrase_E_S03_049"
    INDEX 01 01:06:29
  TRACK 50 AUDIO
    TITLE "LR_black_phrase_E_S03_050"
    INDEX 01 01:07:32
  TRACK 51 AUDIO
    TITLE "LR_black_phrase_E_S03_051"
    INDEX 01 01:08:41
  TRACK 52 AUDIO
    TITLE "LR_black_phrase_E_S03_052"
    INDEX 01 01:08:73
  TRACK 53 AUDIO
    TITLE "LR_black_phrase_E_S03_053"
    INDEX 01 01:11:08
  TRACK 54 AUDIO
    TITLE "LR_black_phrase_E_S03_054"
    INDEX 01 01:11:65
  TRACK 55 AUDIO
    TITLE "LR_black_phrase_E_S03_055"
    INDEX 01 01:14:01
  TRACK 56 AUDIO
    TITLE "LR_black_phrase_E_S03_056"
    INDEX 01 01:15:06
  TRACK 57 AUDIO
    TITLE "LR_black_phrase_E_S03_057"
    INDEX 01 01:16:29
  TRACK 58 AUDIO
    TITLE "LR_black_phrase_E_S03_058"
    INDEX 01 01:16:60
  TRACK 59 AUDIO
    TITLE "LR_black_phrase_E_S03_059"
    INDEX 01 01:18:67
  TRACK 60 AUDIO
    TITLE "LR_black_phrase_E_S03_060"
    INDEX 01 01:19:47
  TRACK 61 AUDIO
    TITLE "LR_black_phrase_E_S03_061"
    INDEX 01 01:21:56
  TRACK 62 AUDIO
    TITLE "LR_black_phrase_E_S03_062"
    INDEX 01 01:22:55
  TRACK 63 AUDIO
    TITLE "LR_black_phrase_E_S03_063"
    INDEX 01 01:24:03
  TRACK 64 AUDIO
    TITLE "LR_black_phrase_E_S03_064"
    INDEX 01 01:24:23
  TRACK 65 AUDIO
    TITLE "LR_black_phrase_E_S03_065"
    INDEX 01 01:26:71
  TRACK 66 AUDIO
    TITLE "LR_black_phrase_E_S03_066"
    INDEX 01 01:27:43
  TRACK 67 AUDIO
    TITLE "LR_black_phrase_E_S03_067"
    INDEX 01 01:30:16
  TRACK 68 AUDIO
    TITLE "LR_black_phrase_E_S03_068"
    INDEX 01 01:31:13
  TRACK 69 AUDIO
    TITLE "LR_black_phrase_E_S03_069"
    INDEX 01 01:32:34
  TRACK 70 AUDIO
    TITLE "LR_black_phrase_E_S03_070"
    INDEX 01 01:32:56
  TRACK 71 AUDIO
    TITLE "LR_black_phrase_E_S03_071"
    INDEX 01 01:34:49
  TRACK 72 AUDIO
    TITLE "LR_black_phrase_E_S03_072"
    INDEX 01 01:35:19
  TRACK 73 AUDIO
    TITLE "LR_black_phrase_E_S03_073"
    INDEX 01 01:37:14
  TRACK 74 AUDIO
    TITLE "LR_black_phrase_E_S03_074"
    INDEX 01 01:38:15
  TRACK 75 AUDIO
    TITLE "LR_black_phrase_E_S03_075"
    INDEX 01 01:39:32
  TRACK 76 AUDIO
    TITLE "LR_black_phrase_E_S03_076"
    INDEX 01 01:39:64
  TRACK 77 AUDIO
    TITLE "LR_black_phrase_E_S03_077"
    INDEX 01 01:42:21
  TRACK 78 AUDIO
    TITLE "LR_black_phrase_E_S03_078"
    INDEX 01 01:43:03
  TRACK 79 AUDIO
    TITLE "LR_black_phrase_E_S03_079"
    INDEX 01 01:45:33
  TRACK 80 AUDIO
    TITLE "LR_black_phrase_E_S03_080"
    INDEX 01 01:46:36
  TRACK 81 AUDIO
    TITLE "LR_black_phrase_E_S03_081"
    INDEX 01 01:47:71
  TRACK 82 AUDIO
    TITLE "LR_black_phrase_E_S03_082"
    INDEX 01 01:48:27
  TRACK 83 AUDIO
    TITLE "LR_black_phrase_E_S03_083"
    INDEX 01 01:50:67
  TRACK 84 AUDIO
    TITLE "LR_black_phrase_E_S03_084"
    INDEX 01 01:51:41
  TRACK 85 AUDIO
    TITLE "LR_black_phrase_E_S03_085"
    INDEX 01 01:54:06
  TRACK 86 AUDIO
    TITLE "LR_black_phrase_E_S03_086"
    INDEX 01 01:54:75
  TRACK 87 AUDIO
    TITLE "LR_black_phrase_E_S03_087"
    INDEX 01 01:56:33
  TRACK 88 AUDIO
    TITLE "LR_black_phrase_E_S03_088"
    INDEX 01 01:56:52
  TRACK 89 AUDIO
    TITLE "LR_black_phrase_E_S03_089"
    INDEX 01 01:59:39
  TRACK 90 AUDIO
    TITLE "LR_black_phrase_E_S03_090"
    INDEX 01 02:00:13
  TRACK 91 AUDIO
    TITLE "LR_black_phrase_E_S03_091"
    INDEX 01 02:02:72
  TRACK 92 AUDIO
    TITLE "LR_black_phrase_E_S03_092"
    INDEX 01 02:03:72
  TRACK 93 AUDIO
    TITLE "LR_black_phrase_E_S03_093"
    INDEX 01 02:05:22
  TRACK 94 AUDIO
    TITLE "LR_black_phrase_E_S03_094"
    INDEX 01 02:05:45
  TRACK 95 AUDIO
    TITLE "LR_black_phrase_E_S03_095"
    INDEX 01 02:07:72
  TRACK 96 AUDIO
    TITLE "LR_black_phrase_E_S03_096"
    INDEX 01 02:08:42
  TRACK 97 AUDIO
    TITLE "LR_black_phrase_E_S03_097"
    INDEX 01 02:10:70
  TRACK 98 AUDIO
    TITLE "LR_black_phrase_E_S03_098"
    INDEX 01 02:11:69
  TRACK 99 AUDIO
    TITLE "LR_black_phrase_E_S03_099"
    INDEX 01 02:13:17
  TRACK 100 AUDIO
    TITLE "LR_black_phrase_E_S03_100"
    INDEX 01 02:13:47
  TRACK 101 AUDIO
    TITLE "LR_black_phrase_E_S03_101"
    INDEX 01 02:17:64
  TRACK 102 AUDIO
    TITLE "LR_black_phrase_E_S03_102"
    INDEX 01 02:18:42
  TRACK 103 AUDIO
    TITLE "LR_black_phrase_E_S03_103"
    INDEX 01 02:22:57
  TRACK 104 AUDIO
    TITLE "LR_black_phrase_E_S03_104"
    INDEX 01 02:23:63
  TRACK 105 AUDIO
    TITLE "LR_black_phrase_E_S03_105"
    INDEX 01 02:25:05
  TRACK 106 AUDIO
    TITLE "LR_black_phrase_E_S03_106"
    INDEX 01 02:25:34
  TRACK 107 AUDIO
    TITLE "LR_black_phrase_E_S03_107"
    INDEX 01 02:27:43
  TRACK 108 AUDIO
    TITLE "LR_black_phrase_E_S03_108"
    INDEX 01 02:28:25
  TRACK 109 AUDIO
    TITLE "LR_black_phrase_E_S03_109"
    INDEX 01 02:30:31
  TRACK 110 AUDIO
    TITLE "LR_black_phrase_E_S03_110"
    INDEX 01 02:31:29
  TRACK 111 AUDIO
    TITLE "LR_black_phrase_E_S03_111"
    INDEX 01 02:32:60
  TRACK 112 AUDIO
    TITLE "LR_black_phrase_E_S03_112"
    INDEX 01 02:33:06
  TRACK 113 AUDIO
    TITLE "LR_black_phrase_E_S03_113"
    INDEX 01 02:36:18
  TRACK 114 AUDIO
    TITLE "LR_black_phrase_E_S03_114"
    INDEX 01 02:36:69
  TRACK 115 AUDIO
    TITLE "LR_black_phrase_E_S03_115"
    INDEX 01 02:40:06
  TRACK 116 AUDIO
    TITLE "LR_black_phrase_E_S03_116"
    INDEX 01 02:41:08
  TRACK 117 AUDIO
    TITLE "LR_black_phrase_E_S03_117"
    INDEX 01 02:42:31
  TRACK 118 AUDIO
    TITLE "LR_black_phrase_E_S03_118"
    INDEX 01 02:42:48
  TRACK 119 AUDIO
    TITLE "LR_black_phrase_E_S03_119"
    INDEX 01 02:44:59
  TRACK 120 AUDIO
    TITLE "LR_black_phrase_E_S03_120"
    INDEX 01 02:45:29
  TRACK 121 AUDIO
    TITLE "LR_black_phrase_E_S03_121"
    INDEX 01 02:47:38
